HIERARCHY
ROOT Hips
{
    OFFSET 0.000000 0.000000 0.000000
    CHANNELS 6 Xposition Yposition Zposition Zrotation Xrotation Yrotation
        JOINT Chest
        {
            OFFSET -0.000000 31.804140 -0.000000
            CHANNELS 3 Zrotation Xrotation Yrotation
            JOINT Neck
            {
                OFFSET -0.000000 23.903318 0.000000
                CHANNELS 3 Zrotation Xrotation Yrotation
                JOINT Head
                {
                    OFFSET -0.000000 10.511110 0.000000
                    CHANNELS 3 Zrotation Xrotation Yrotation
                    End Site
                    {
                        OFFSET -0.000000 16.244448 0.000000
                    }
                }
            }
            JOINT LeftCollar
            {
                OFFSET -0.000000 23.903318 0.000000
                CHANNELS 3 Zrotation Xrotation Yrotation
                JOINT LeftShoulder
                {
                    OFFSET 20.500000 -0.000000 0.000000
                    CHANNELS 3 Zrotation Xrotation Yrotation
                    JOINT LeftElbow
                    {
                        OFFSET 20.922438 0.000000 0.000000
                        CHANNELS 3 Zrotation Xrotation Yrotation
                        JOINT LeftWrist
                        {
                            OFFSET 26.373112 0.000000 0.000000
                            CHANNELS 3 Zrotation Xrotation Yrotation
                            End Site
                            {
                                OFFSET 0.000000 -14.333333 0.000000
                            }
                        }
                    }
                }
            }
            JOINT RightCollar
            {
                OFFSET -0.000000 23.903318 0.000000
                CHANNELS 3 Zrotation Xrotation Yrotation
                JOINT RightShoulder
                {
                    OFFSET -20.500000 0.000000 0.000000
                    CHANNELS 3 Zrotation Xrotation Yrotation
                    JOINT RightElbow
                    {
                        OFFSET -20.922438 0.000000 0.000000
                        CHANNELS 3 Zrotation Xrotation Yrotation
                        JOINT RightWrist
                        {
                            OFFSET -26.373112 0.000000 0.000000
                            CHANNELS 3 Zrotation Xrotation Yrotation
                            End Site
                            {
                                OFFSET -0.000000 -14.333333 0.000000
                            }
                        }
                    }
                }
            }
        }
    JOINT LeftHip
    {
        OFFSET 11.466667 0.000000 0.000000
        CHANNELS 3 Zrotation Xrotation Yrotation
        JOINT LeftKnee
        {
            OFFSET -0.000000 -37.458855 0.000000
            CHANNELS 3 Zrotation Xrotation Yrotation
            JOINT LeftAnkle
            {
                OFFSET -0.000000 -39.235966 0.000000
                CHANNELS 3 Zrotation Xrotation Yrotation
                End Site
                {
                    OFFSET -0.000000 -4.777778 16.244448
                }
            }
        }
    }
    JOINT RightHip
    {
        OFFSET -11.466667 0.000000 0.000000
        CHANNELS 3 Zrotation Xrotation Yrotation
        JOINT RightKnee
        {
            OFFSET -0.000000 -37.458855 0.000000
            CHANNELS 3 Zrotation Xrotation Yrotation
            JOINT RightAnkle
            {
                OFFSET -0.000000 -39.235966 0.000000
                CHANNELS 3 Zrotation Xrotation Yrotation
                End Site
                {
                    OFFSET -0.000000 -4.777778 16.244448
                }
            }
        }
    }
}
MOTION
Frames:    5
Frame Time:    0.010000
-92.258537    87.580406    -129.119400    -4.662830    -4.169837    -14.214725    3.590921    13.114795    -0.041385    -14.350563    10.702870    -0.959447    7.056806    -12.130312    -1.749649    -9.450047    -0.045545    0.551038    -67.633667    22.129421    -15.120957    -21.156178    13.643682    -65.181564    179.414352    -16.906612    24.118544    18.855614    1.194718    7.304508    41.956028    49.330730    22.052370    1.188052    0.721867    64.947876    -131.992416    -24.786709    20.275902    22.484076    2.389567    3.420630    -13.862258    26.820530    19.272528    -8.243305    0.783370    12.459431    -8.097610    -8.225377    -6.846451    0.725382    33.650799    -30.050159    19.015797    -5.507195    13.515407    
-92.467972    87.251930    -129.252914    -4.566851    -4.122156    -13.948074    3.432841    13.071121    -0.024809    -13.747487    11.385192    -1.276426    6.620858    -13.890245    -1.863715    -9.382427    0.003073    -0.275760    -67.371010    22.492132    -14.933576    -20.851320    13.459266    -66.060356    -179.043060    -15.789928    24.923132    19.035717    1.168127    6.772746    41.549625    49.476742    22.218908    1.348604    0.895861    64.728943    -132.029297    -26.597921    24.177309    22.944939    1.956445    3.283529    -14.464631    27.756968    19.073399    -9.104569    0.593604    12.594305    -7.962215    -8.597601    -4.716528    1.864727    33.652599    -28.879374    16.473194    -5.385873    9.453449    
-92.443748    86.492867    -129.267914    -4.022159    -4.618028    -13.511433    2.809169    13.574282    -0.022864    -13.265100    11.567007    -1.227039    6.291928    -14.885167    -1.740667    -9.467164    0.037824    -0.382246    -67.143654    23.269400    -15.202841    -20.370714    13.109585    -66.297112    179.879868    -17.698423    23.948347    19.253361    1.318574    8.441706    44.610096    43.071209    18.361729    5.249153    5.111065    65.287476    -134.387253    -28.522068    23.553137    22.685900    1.735260    2.756802    -15.490600    28.613567    20.452002    -9.235946    0.453356    13.895584    -8.599614    -8.205265    -6.014136    0.906218    33.792309    -25.898773    16.757309    -5.416326    7.397338    
-92.517517    86.105110    -129.330505    -3.890096    -4.800843    -13.252658    2.638444    13.821482    -0.060598    -13.201780    11.616278    -1.192654    6.436693    -15.476033    -1.661558    -9.546851    0.018563    -0.367628    -66.949860    23.661367    -15.341702    -19.985653    12.965513    -66.741684    -179.971588    -18.003729    23.811514    19.293556    1.422720    8.869363    44.862148    41.578552    17.812309    6.919489    5.702179    65.379234    -133.699722    -30.246370    25.229624    22.839197    1.523758    2.525381    -16.107140    29.237457    21.098410    -9.464824    0.039499    14.067202    -8.732068    -8.164983    -6.017369    0.928161    33.974949    -24.625818    16.541245    -5.655136    5.727329    
-92.598007    85.653877    -129.404510    -3.760876    -5.006982    -12.968753    2.467920    14.097479    -0.106634    -13.111371    11.729248    -1.187532    6.607422    -16.190340    -1.596775    -9.648580    0.058814    -0.404101    -66.688576    24.054897    -15.548416    -19.667984    12.873302    -67.077560    -179.657944    -18.319212    23.717896    19.356462    1.524553    9.259838    45.037872    40.088634    17.335423    8.344936    6.374918    65.478348    -133.489120    -31.666603    26.318298    23.022840    1.282522    2.317382    -16.798687    29.940710    21.863350    -9.628178    -0.526792    14.125516    -8.894508    -8.136629    -6.153108    0.944312    34.270821    -23.301510    16.462772    -6.050418    4.127227    
